<svg height="464pt" viewBox="0 0 464 464" width="464pt" xmlns="http://www.w3.org/2000/svg"><path d="m376 71.941406v16h61.367188l-62.023438 65.285156c-47.511719 50.027344-114.34375 78.714844-183.34375 78.714844v16c73.367188 0 144.425781-30.503906 194.9375-83.699218l61.0625-64.269532v59.96875h16v-88zm0 0"/><path d="m8 367.941406h40v-48h-40c-4.414062 0-8 3.582032-8 8v32c0 4.414063 3.585938 8 8 8zm8-32h16v16h-16zm0 0"/><path d="m8 271.941406h104v-48h-104c-4.414062 0-8 3.582032-8 8v32c0 4.414063 3.585938 8 8 8zm40-32h16v16h-16zm-32 0h16v16h-16zm0 0"/><path d="m89.214844 162.84375 13.640625-9.09375c5.730469-3.808594 9.144531-10.195312 9.144531-17.074219 0-10.152343-7.566406-18.878906-17.617188-20.3125l-10.078124-1.4375c-16.136719-2.3125-28.304688-16.34375-28.304688-32.640625 0-8.808594 3.433594-17.089844 9.65625-23.3125l9.375-9.375c3.199219-3.203125 4.96875-7.472656 4.96875-12 0-10.53125-2.558594-20.875-7.199219-30.371094-40.417969 15.402344-70.242187 53.738282-72.632812 98.554688-1.230469 23.03125 4.558593 45.175781 15.945312 64.039062 23.964844 9.953126 51.710938 7.289063 73.101563-6.976562zm0 0"/><path d="m0 423.941406v32c0 4.414063 3.585938 8 8 8h104v-48h-104c-4.414062 0-8 3.582032-8 8zm48 8h16v16h-16zm-32 0h16v16h-16zm0 0"/><path d="m32 287.941406h112v16h-112zm0 0"/><path d="m176 263.941406v-32c0-4.417968-3.585938-8-8-8h-40v48h40c4.414062 0 8-3.585937 8-8zm-16-8h-16v-16h16zm0 0"/><path d="m176 359.941406v-32c0-4.417968-3.585938-8-8-8h-104v48h104c4.414062 0 8-3.585937 8-8zm-48-8h-16v-16h16zm32 0h-16v-16h16zm0 0"/><path d="m32 383.941406h112v16h-112zm0 0"/><path d="m168 415.941406h-40v48h40c4.414062 0 8-3.585937 8-8v-32c0-4.417968-3.585938-8-8-8zm-8 32h-16v-16h16zm0 0"/><path d="m368 415.941406h32v-188.34375c-10.414062 6.101563-21.078125 11.734375-32 16.804688zm0 0"/><path d="m272 415.941406h32v-148.425781c-10.550781 2.769531-21.222656 5.074219-32 6.929687zm0 0"/><path d="m320 415.941406h32v-164.511718c-10.496094 4.300781-21.160156 8.167968-32 11.519531zm0 0"/><path d="m416 415.941406h32v-221.601562c-10.273438 8.382812-20.984375 16.121094-32 23.335937zm0 0"/><path d="m150.902344 54.445312 7.007812 3.503907c11.160156 5.574219 18.089844 16.800781 18.089844 29.269531 0 9.21875 7.503906 16.722656 16.71875 16.722656h30.882812c-1.945312-27.839844-13.875-53.546875-34.28125-73.035156-16.34375-15.597656-36.433593-25.597656-58.160156-29.300781-2.070312 5-3.160156 10.367187-3.160156 15.78125 0 15.792969 8.777344 30 22.902344 37.058593zm0 0"/><path d="m224 415.941406h32v-139.097656c-10.601562 1.359375-21.273438 2.289062-32 2.746094zm0 0"/><path d="m212.367188 161.53125c-8.230469-6.101562-18.046876-9.589844-28.367188-9.589844-26.472656 0-48 21.527344-48 48 0 2.6875.289062 5.351563.734375 8h31.265625c.472656 0 .921875.109375 1.382812.132813 18.761719-11.222657 33.5625-27.492188 42.984376-46.542969zm0 0"/><path d="m185.761719 279.941406c-4.394531 4.871094-10.699219 8-17.761719 8h-8v16h8c13.230469 0 24 10.765625 24 24v32c0 13.230469-10.769531 24-24 24h-8v16h8c10.414062 0 19.214844 6.710938 22.527344 16h17.472656v-136.007812c-.078125 0-.160156.007812-.230469.007812zm0 0"/><path d="m76.96875 70.285156c-3.199219 3.199219-4.96875 7.472656-4.96875 12 0 8.390625 6.265625 15.605469 14.566406 16.800782l10.082032 1.4375c17.871093 2.550781 31.351562 18.097656 31.351562 36.152343 0 12.242188-6.078125 23.601563-16.265625 30.390625l-13.636719 9.097656c-15.488281 10.3125-33.511718 15.777344-52.128906 15.777344-4.535156 0-9.007812-.449218-13.449219-1.089844 6.457031 6.480469 13.777344 12.222657 21.863281 17.089844h66.210938c-.335938-2.65625-.59375-5.320312-.59375-8 0-35.289062 28.710938-64 64-64 12.375 0 24.3125 3.574219 34.566406 10.199219 2.714844-8.433594 4.480469-17.207031 5.128906-26.199219h-30.976562c-18.039062 0-32.71875-14.679687-32.71875-32.722656 0-6.375-3.535156-12.109375-9.238281-14.957031l-7.007813-3.503907c-19.585937-9.792968-31.753906-29.472656-31.753906-51.371093 0-5.886719 1.023438-11.710938 2.800781-17.3007815-2.710937-.0664063-5.425781-.1445313-8.167969-.0195313-6.234374.2890628-12.320312 1.2031248-18.273437 2.5039058 4.976563 11.019532 7.640625 22.929688 7.640625 35.027344 0 8.804688-3.433594 17.085938-9.65625 23.308594zm0 0"/></svg>