<svg id="Layer_5" enable-background="new 0 0 64 64" height="512" viewBox="0 0 64 64" width="512" xmlns="http://www.w3.org/2000/svg"><g><path d="m62 32c0-6.065-4.935-11-11-11-1.765 0-3.463.414-5 1.202v-10.202c0-2.206-1.794-4-4-4s-4 1.794-4 4v.586l-.855.855c-.739.739-1.145 1.719-1.145 2.763 0 1.428.761 2.718 2 3.41v7.386h-11.152l-.393-2.359c1.316-.886 2.352-2.153 2.957-3.641h.588c2.206 0 4-1.794 4-4 0-.855-.275-1.645-.734-2.296l.01-.021c.474-.948.724-2.007.724-3.065 0-2.612-1.452-4.962-3.789-6.131l-.222-.111c-.061-2.422-2.04-4.376-4.476-4.376h-6.513c-3.717 0-6.766 2.911-6.987 6.573l-.195.195c-1.172 1.172-1.818 2.73-1.818 4.387 0 .669.107 1.329.318 1.962l.273.818c-.367.605-.591 1.307-.591 2.065 0 2.206 1.794 4 4 4h.589c.605 1.488 1.641 2.756 2.957 3.641l-.408 2.448-5.67.63c-1.888.21-3.667 1.064-5.009 2.407-1.586 1.587-2.459 3.694-2.459 5.937v6.937c0 3.309 2.691 6 6 6h7.196l-10.543 7.029c-.707-.632-1.631-1.029-2.653-1.029-2.206 0-4 1.794-4 4s1.794 4 4 4h48v-20.051c5.598-.507 10-5.221 10-10.949zm-23.441-17.145 1.441-1.441v-1.414c0-1.103.897-2 2-2s2 .897 2 2v6h-4.763l-.182-.091c-.651-.325-1.055-.978-1.055-1.705 0-.51.198-.988.559-1.349zm.027 14.145 1.707 1.707 1.414-1.414-1.707-1.707v-7.586h4v9c0 2.206-1.794 4-4 4h-7v2.35c-.627-.222-1.298-.35-2-.35-2.893 0-5.314 2.058-5.876 4.787-.082-.061-.162-.125-.248-.179 1.974-3.232 3.281-6.859 3.824-10.608zm-30.823 28.693 2.237-1.491v4.798h-2.556c.344-.591.556-1.268.556-2 0-.46-.094-.895-.237-1.307zm4.237-2.825 2-1.333v7.465h-2zm4-2.667 2-1.333v10.132h-2zm4-2.666.802-.535h1.198v12h-2zm-.077-18.198-.739 4.063c-.88-2.017-1.503-4.142-1.85-6.32l.298-.033zm6.491-2.337h.266c-.345 2.208-.968 4.37-1.861 6.417l-.742-4.08zm-4.248 3 1.151 6.331c-.137.229-.283.453-.427.678-.032-.001-.062-.009-.094-.009-.526 0-1.032.105-1.497.297-.211-.321-.417-.645-.614-.975l1.149-6.322zm-1.166 10.237.091-.182c.325-.651.978-1.055 1.705-1.055.51 0 .988.198 1.349.559l1.441 1.441h1.414c1.103 0 2 .897 2 2s-.897 2-2 2h-6zm14-1.237c0 2.206-1.794 4-4 4 0-2.206-1.794-4-4-4 0-2.206 1.794-4 4-4s4 1.794 4 4zm-11 8h2v12h-2zm4-.142c.79-.205 1.479-.643 2-1.24v13.382h-2zm4-1.948c.507-.086.992-.232 1.447-.437l1.638 2.456c-.669.85-1.085 1.908-1.085 3.071v9h-2zm10 5.09c0 1.654-1.346 3-3 3s-3-1.346-3-3 1.346-3 3-3 3 1.346 3 3zm-6 3.974c.584.442 1.257.773 2 .924v4.102h-2zm4 .925c.743-.152 1.416-.482 2-.924v5.025h-2zm4-4.899c0-1.309-.517-2.492-1.343-3.385l3.343-5.85v18.235h-2zm-2.974-4.562c-.621-.277-1.304-.438-2.026-.438-.865 0-1.668.241-2.378.629l-1.513-2.269c1.161-1.094 1.891-2.642 1.891-4.36 0-1.771-.776-3.36-2-4.46v-1.54h5c.138 0 .273-.011.409-.021.7 2.5 2.246 4.608 4.288 6.035zm-11.026-28.438h-.069c.041-.328.069-.661.069-1v-3c1.103 0 2 .897 2 2s-.897 2-2 2zm-16 0c-1.103 0-2-.897-2-2s.897-2 2-2v3c0 .339.028.672.069 1zm.016-6h-.016c-.649 0-1.253.17-1.795.445-.134-.417-.205-.85-.205-1.29 0-1.123.437-2.179 1.231-2.973l.769-.768v-.414c0-2.757 2.243-5 5-5h6.513c1.371 0 2.487 1.116 2.487 2.487 0 1.072-.684 2.02-1.699 2.358l-.616.205.631 1.898.617-.206c1.184-.395 2.111-1.25 2.624-2.325 1.509.866 2.443 2.445 2.443 4.201 0 .599-.118 1.197-.335 1.756-.509-.234-1.069-.374-1.665-.374v-2h-4.528c-2.771 0-5.546-.655-8.024-1.895l-.448-.223-.447.224c-1.503.752-2.453 2.231-2.537 3.894zm1.984 5v-4.764c0-.842.395-1.611 1.054-2.101 2.625 1.221 5.523 1.865 8.418 1.865h2.528v5c0 3.309-2.691 6-6 6s-6-2.691-6-6zm6 8c.904 0 1.77-.158 2.581-.435l.348 2.092-2.343 2.343h-1.172l-2.343-2.343.348-2.092c.811.277 1.677.435 2.581.435zm-16 17v-6.938c0-1.708.665-3.313 1.873-4.521 1.022-1.022 2.378-1.674 3.815-1.833l3.657-.407c.624 4.002 2.117 7.843 4.362 11.215-.117.152-.227.312-.323.484h-7.384v-4.343c0-1.336-.521-2.592-1.465-3.536l-.828-.828-1.414 1.414.828.828c.566.568.879 1.32.879 2.122v4.929l-1.707 1.707 1.414 1.414 1.707-1.707h7.586v4h-9c-2.206 0-4-1.794-4-4zm-4 16c0-1.103.897-2 2-2s2 .897 2 2-.897 2-2 2-2-.897-2-2zm46 2v-18.421c.647.183 1.314.313 2 .375v18.046zm3-20c-4.035 0-7.54-2.681-8.642-6.484 2.139-.918 3.642-3.044 3.642-5.516v-4.477c1.481-.995 3.197-1.523 5-1.523 4.963 0 9 4.037 9 9s-4.037 9-9 9z"/><path d="m52 27.145v-2.145h-2v2.145c-1.155.366-2 1.435-2 2.709 0 1.088.604 2.065 1.578 2.553l1.949.975c.292.145.473.438.473.764 0 .47-.384.854-.854.854h-.291c-.471 0-.855-.384-.855-.854v-.146h-2v.146c0 1.275.845 2.344 2 2.709v2.145h2v-2.145c1.155-.366 2-1.435 2-2.709 0-1.088-.604-2.065-1.578-2.553l-1.949-.975c-.292-.145-.473-.438-.473-.764 0-.47.384-.854.854-.854h.291c.471 0 .855.384.855.854v.146h2v-.146c0-1.274-.845-2.343-2-2.709z"/><path d="m22 22c2.206 0 4-1.794 4-4h-2c0 1.103-.897 2-2 2s-2-.897-2-2h-2c0 2.206 1.794 4 4 4z"/></g></svg>